<?xml version="1.0" encoding="utf-8"?>
<!-- Generator: Adobe Illustrator 24.0.3, SVG Export Plug-In . SVG Version: 6.00 Build 0)  -->
<svg version="1.1" id="Layer_1" xmlns="http://www.w3.org/2000/svg" xmlns:xlink="http://www.w3.org/1999/xlink" x="0px" y="0px"
	 viewBox="0 0 668 661" style="enable-background:new 0 0 668 661;" xml:space="preserve">
<style type="text/css">
	.st0{fill:none;}
	.st1{fill:#0B0B0B;}
	.st2{enable-background:new    ;}
	.st3{fill:#101010;}
</style>
<g id="Rectangle_351">
	<path class="st0" d="M41.54,18.42h581.83c11.25,0,20.38,9.12,20.38,20.38v581.83c0,11.25-9.12,20.38-20.38,20.38H41.54
		c-11.25,0-20.38-9.12-20.38-20.38V38.8C21.17,27.54,30.29,18.42,41.54,18.42z"/>
	<path class="st1" d="M623.37,641H41.54c-11.24,0-20.38-9.14-20.38-20.38V38.8c0-11.24,9.14-20.38,20.38-20.38h581.83
		c11.24,0,20.38,9.14,20.38,20.38v581.83C643.74,631.86,634.6,641,623.37,641z M41.54,36.53c-1.25,0-2.26,1.02-2.26,2.26v581.83
		c0,1.25,1.02,2.26,2.26,2.26h581.83c1.25,0,2.26-1.02,2.26-2.26V38.8c0-1.25-1.02-2.26-2.26-2.26H41.54z"/>
</g>
<g class="st2">
	<path class="st3" d="M299.99,276.38c8.67,7.74,13.12,17.56,13.33,29.47v102.53h-43.9v-86.23c-0.63-13.38-7.32-20.07-20.07-20.07
		c-10.03,0-18.08,4.7-24.14,14.11c-6.07,9.41-9.09,21.53-9.09,36.37v55.81h-43.9V271.36h39.82l3.14,21.95
		c5.02-8.99,11.96-15.99,20.85-21.01c8.88-5.02,19.39-7.53,31.51-7.53C280.5,264.77,291.32,268.64,299.99,276.38z"/>
	<path class="st3" d="M493.3,271.36v137.02h-43.9v-16.93c-13.17,13.8-28.43,20.69-45.78,20.69c-20.28,0-36.74-6.06-49.38-18.19
		c-12.65-12.12-18.97-30.1-18.97-53.93c0-15.05,3.08-28.27,9.25-39.66c6.16-11.39,14.37-20.22,24.61-26.5
		c10.24-6.27,21.21-9.41,32.92-9.41c12.12,0,21.74,1.83,28.85,5.49c7.1,3.66,13.38,8.83,18.81,15.52l2.82-14.11H493.3z M449.4,355.7
		v-33.55c-2.51-6.69-6.85-12.02-13.01-15.99c-6.17-3.97-13.43-5.96-21.79-5.96c-9.62,0-17.82,3.56-24.61,10.66
		c-6.79,7.11-10.19,16.1-10.19,26.97c0,7.11,1.67,13.64,5.02,19.6c3.34,5.96,7.78,10.61,13.33,13.95
		c5.54,3.35,11.55,5.02,18.03,5.02C431.42,376.4,442.5,369.5,449.4,355.7z"/>
</g>
</svg>
