<svg version="1.1" id="Layer_1" xmlns="http://www.w3.org/2000/svg" x="0" y="0" viewBox="0 0 2394 653" xml:space="preserve"><style/><g id="Rectangle_342" fill="none"><path d="M-8249.7-5355h1432c19.88 0 36 16.12 36 36v542c0 19.88-16.12 36-36 36h-1432c-19.88 0-36-16.12-36-36v-542c0-19.89 16.12-36 36-36z" transform="translate(8323 5376)"/><path d="M73.3 37h1432c11.05 0 20 8.95 20 20v542c0 11.05-8.95 20-20 20H73.3c-11.05 0-20-8.95-20-20V57c0-11.05 8.96-20 20-20z" stroke="#0b0b0b" stroke-width="32"/></g><path d="M418.95 233.76c15.32 13.67 23.17 31.02 23.54 52.08V467h-77.56V314.65c-1.11-23.63-12.93-35.46-35.46-35.46-17.73 0-31.95 8.31-42.66 24.93-10.72 16.62-16.07 38.04-16.07 64.26V467h-77.56V224.9h70.36l5.54 38.78c8.86-15.88 21.14-28.25 36.84-37.12 15.69-8.86 34.25-13.3 55.68-13.3 22.9 0 42.02 6.84 57.35 20.5zm341.54-8.86V467h-77.56v-29.92c-23.27 24.38-50.23 36.56-80.88 36.56-35.83 0-64.91-10.71-87.26-32.13-22.35-21.42-33.52-53.18-33.52-95.29 0-26.59 5.44-49.95 16.34-70.08 10.89-20.13 25.39-35.73 43.49-46.81 18.09-11.08 37.48-16.62 58.17-16.62 21.42 0 38.41 3.24 50.97 9.7 12.55 6.47 23.63 15.61 33.24 27.42l4.99-24.93h72.02zm-77.56 149.02v-59.28c-4.43-11.82-12.1-21.23-22.99-28.25-10.9-7.01-23.74-10.53-38.5-10.53-16.99 0-31.49 6.28-43.49 18.84-12.01 12.56-18 28.44-18 47.64 0 12.56 2.95 24.1 8.86 34.62 5.9 10.53 13.75 18.75 23.54 24.65 9.78 5.91 20.4 8.86 31.85 8.86 26.96.02 46.54-12.17 58.73-36.55zm360.93-140.16c15.32 13.67 23.17 31.02 23.54 52.08V467h-77.56V314.65c-1.11-23.63-12.93-35.46-35.46-35.46-17.73 0-31.95 8.31-42.66 24.93-10.72 16.62-16.07 38.04-16.07 64.26V467H818.1V224.9h70.36l5.54 38.78c8.87-15.88 21.14-28.25 36.84-37.12 15.69-8.86 34.25-13.3 55.68-13.3 22.89 0 42.01 6.84 57.34 20.5zm341.53-8.86V467h-77.56v-29.92c-23.27 24.38-50.23 36.56-80.88 36.56-35.83 0-64.91-10.71-87.25-32.13-22.35-21.42-33.52-53.18-33.52-95.29 0-26.59 5.45-49.95 16.34-70.08 10.89-20.13 25.39-35.73 43.49-46.81 18.09-11.08 37.48-16.62 58.17-16.62 21.42 0 38.41 3.24 50.97 9.7 12.55 6.47 23.63 15.61 33.24 27.42l4.99-24.93h72.01zm-77.56 149.02v-59.28c-4.43-11.82-12.1-21.23-22.99-28.25-10.9-7.01-23.74-10.53-38.5-10.53-16.99 0-31.49 6.28-43.49 18.84-12.01 12.56-18 28.44-18 47.64 0 12.56 2.95 24.1 8.86 34.62 5.9 10.53 13.75 18.75 23.54 24.65 9.78 5.91 20.4 8.86 31.86 8.86 26.95.02 46.54-12.17 58.72-36.55z" fill="#101010"/><path d="M1719.01 146.26V495h-61.88V146.26h61.88zm276.24 263.29l-17.24 12.82V490h-61.88V141.26h61.88v218.35l91.94-67.63 37.57 33.15-68.52 51.71L2114.59 490h-72.05l-47.29-80.45zm297.02 20.33l27.4 45.97c-10.61 5.9-21.81 10.61-33.59 14.14-11.79 3.54-22.98 5.3-33.59 5.3-22.98 0-42.81-4.35-59.45-13.04-16.65-8.69-29.25-20.92-37.79-36.69-8.55-15.76-12.82-33.81-12.82-54.15 0-18.85 4.93-36.24 14.81-52.16 9.87-15.91 23.35-28.51 40.44-37.79 17.09-9.28 35.8-13.92 56.13-13.92 27.69 0 50.46 8.11 68.29 24.31 17.83 16.21 29.39 39.34 34.7 69.39l-141.44 45.08c9.43 10.91 22.25 16.35 38.45 16.35 12.38.03 25.2-4.24 38.46-12.79zm-76.47-80c-8.25 9.43-12.38 22.1-12.38 38.01v3.98l84.86-28.73c-6.19-18.27-19.3-27.4-39.34-27.4-13.84 0-24.89 4.72-33.14 14.14zm-376.38 139.1c-6.92 6.04-14.81 9.06-23.65 9.06-8.54 0-16.2-3.02-22.98-9.06-6.78-6.04-10.17-13.48-10.17-22.32s3.39-16.21 10.17-22.1c6.78-5.9 14.44-8.84 22.98-8.84 8.84 0 16.73 2.94 23.65 8.84 6.93 5.89 10.39 13.26 10.39 22.1s-3.46 16.28-10.39 22.32zm-52.82-90.83V205h61.88v193.15h-61.88z"/></svg>