<svg xmlns="http://www.w3.org/2000/svg" viewBox="0 0 668 661"><path d="M41.54 18.42h581.83c11.25 0 20.38 9.12 20.38 20.38v581.83c0 11.25-9.12 20.38-20.38 20.38H41.54c-11.25 0-20.38-9.12-20.38-20.38V38.8c.01-11.26 9.13-20.38 20.38-20.38z" fill="none"/><path d="M623.37 641H41.54c-11.24 0-20.38-9.14-20.38-20.38V38.8c0-11.24 9.14-20.38 20.38-20.38h581.83c11.24 0 20.38 9.14 20.38 20.38v581.83c-.01 11.23-9.15 20.37-20.38 20.37zM41.54 36.53c-1.25 0-2.26 1.02-2.26 2.26v581.83c0 1.25 1.02 2.26 2.26 2.26h581.83c1.25 0 2.26-1.02 2.26-2.26V38.8c0-1.25-1.02-2.26-2.26-2.26H41.54z" fill="#0b0b0b"/><text transform="translate(149.644 408.38)" letter-spacing="-12" font-size="313.553" font-family="JosefinSans-Bold" fill="#101010">na</text></svg>